<svg width="32" height="34" viewBox="0 0 32 34" fill="none" xmlns="http://www.w3.org/2000/svg">
<path d="M11.2246 31.4273V26.3311C11.2246 25.0302 12.2869 23.9756 13.5974 23.9756H18.3877C19.017 23.9756 19.6205 24.2238 20.0655 24.6655C20.5104 25.1073 20.7604 25.7064 20.7604 26.3311V31.4273C20.7565 31.9682 20.9701 32.4882 21.3539 32.8721C21.7378 33.2559 22.2601 33.4718 22.8049 33.4717H26.073C27.5994 33.4757 29.0646 32.8765 30.1453 31.8064C31.226 30.7364 31.8333 29.2834 31.8333 27.7681V13.2499C31.8333 12.0259 31.2868 10.8648 30.341 10.0795L19.2234 1.26488C17.2894 -0.280636 14.5185 -0.230735 12.6423 1.38339L1.77834 10.0795C0.787891 10.8417 0.19591 12.0062 0.166656 13.2499V27.7533C0.166656 30.9115 2.74563 33.4717 5.92695 33.4717H9.12047C10.252 33.4718 11.1717 32.5655 11.1799 31.4421L11.2246 31.4273Z" fill="black"/>
</svg>
