<svg width="21" height="22" viewBox="0 0 21 22" fill="none" xmlns="http://www.w3.org/2000/svg">
<path d="M7.48398 20.2351V17.0164C7.48398 16.1948 8.15492 15.5287 8.98256 15.5287H12.008C12.4055 15.5287 12.7866 15.6855 13.0677 15.9645C13.3487 16.2435 13.5066 16.6219 13.5066 17.0164V20.2351C13.5041 20.5767 13.639 20.9051 13.8814 21.1476C14.1239 21.39 14.4537 21.5263 14.7978 21.5263H16.8619C17.8259 21.5288 18.7513 21.1504 19.4339 20.4745C20.1164 19.7987 20.5 18.881 20.5 17.924V8.75459C20.5 7.98154 20.1548 7.24826 19.5575 6.75229L12.5358 1.18513C11.3144 0.209014 9.56433 0.240531 8.37936 1.25998L1.51791 6.75229C0.892359 7.23364 0.518476 7.96909 0.5 8.75459V17.9147C0.5 19.9093 2.12882 21.5263 4.13808 21.5263H6.15504C6.86971 21.5263 7.45052 20.9539 7.4557 20.2445L7.48398 20.2351Z" fill="#EFEFEF"/>
</svg>
