<svg width="286" height="261" viewBox="0 0 286 261" fill="none" xmlns="http://www.w3.org/2000/svg">
<g clip-path="url(#clip0_73_383)">
<path d="M144.942 65.1954H40.2103C33.3954 65.1954 27.8708 70.7345 27.8708 77.5674V181.239C27.8708 188.072 33.3954 193.611 40.2103 193.611H144.942C151.757 193.611 157.282 188.072 157.282 181.239V77.5674C157.282 70.7345 151.757 65.1954 144.942 65.1954Z" fill="#F2F2F2"/>
<path d="M62.2035 67.7396C53.7709 67.7396 45.6837 71.0983 39.721 77.0768C33.7583 83.0553 30.4084 91.1639 30.4084 99.6187V181.239C30.4084 182.53 30.662 183.808 31.1546 185C31.6472 186.192 32.3691 187.276 33.2793 188.188C34.1895 189.101 35.2701 189.825 36.4593 190.319C37.6485 190.812 38.9231 191.067 40.2102 191.067H107.053C119.701 191.067 131.832 186.029 140.775 177.061C149.719 168.094 154.744 155.931 154.744 143.25V77.5673C154.744 74.9609 153.711 72.4612 151.873 70.6181C150.035 68.7751 147.542 67.7396 144.942 67.7396H62.2035Z" fill="white"/>
<path d="M271.154 22.8116H9.67098C9.54862 22.8116 9.43125 22.7629 9.34472 22.6761C9.2582 22.5894 9.20959 22.4717 9.20959 22.349C9.20959 22.2263 9.2582 22.1087 9.34472 22.0219C9.43125 21.9352 9.54862 21.8864 9.67098 21.8864H271.154C271.276 21.8864 271.394 21.9352 271.48 22.0219C271.567 22.1087 271.615 22.2263 271.615 22.349C271.615 22.4717 271.567 22.5894 271.48 22.6761C271.394 22.7629 271.276 22.8116 271.154 22.8116Z" fill="#E6E6E6"/>
<path d="M22.7536 8.92393C24.9085 8.92393 26.6554 7.13339 26.6554 4.92465C26.6554 2.71591 24.9085 0.925369 22.7536 0.925369C20.5987 0.925369 18.8518 2.71591 18.8518 4.92465C18.8518 7.13339 20.5987 8.92393 22.7536 8.92393Z" fill="#E6E6E6"/>
<path d="M36.2323 8.92393C38.3872 8.92393 40.1341 7.13339 40.1341 4.92465C40.1341 2.71591 38.3872 0.925369 36.2323 0.925369C34.0775 0.925369 32.3306 2.71591 32.3306 4.92465C32.3306 7.13339 34.0775 8.92393 36.2323 8.92393Z" fill="#E6E6E6"/>
<path d="M49.7114 8.92393C51.8662 8.92393 53.6131 7.13339 53.6131 4.92465C53.6131 2.71591 51.8662 0.925369 49.7114 0.925369C47.5565 0.925369 45.8096 2.71591 45.8096 4.92465C45.8096 7.13339 47.5565 8.92393 49.7114 8.92393Z" fill="#E6E6E6"/>
<path d="M65.0807 8.08558C65.0193 8.08566 64.9584 8.07339 64.9018 8.04949C64.8451 8.02559 64.7938 7.99055 64.7509 7.94643L62.1182 5.24804C62.0338 5.16162 61.9866 5.04551 61.9866 4.92458C61.9866 4.80365 62.0338 4.68753 62.1182 4.60112L64.7509 1.90295C64.7931 1.85883 64.8436 1.82354 64.8995 1.79911C64.9554 1.77468 65.0156 1.76161 65.0765 1.76063C65.1375 1.75966 65.198 1.77081 65.2547 1.79344C65.3113 1.81607 65.3629 1.84973 65.4065 1.89248C65.4501 1.93522 65.4848 1.98621 65.5086 2.04248C65.5324 2.09875 65.5449 2.1592 65.5453 2.22033C65.5456 2.28145 65.5339 2.34205 65.5108 2.39862C65.4877 2.45518 65.4536 2.50659 65.4105 2.54987L63.0935 4.92457L65.4105 7.29951C65.474 7.3646 65.517 7.44704 65.534 7.53649C65.5509 7.62594 65.5412 7.71843 65.506 7.80236C65.4708 7.8863 65.4116 7.95794 65.336 8.00832C65.2603 8.0587 65.1715 8.08557 65.0807 8.08558Z" fill="#E6E6E6"/>
<path d="M69.5048 8.08558C69.414 8.08557 69.3252 8.05869 69.2496 8.00831C69.1739 7.95793 69.1148 7.88629 69.0795 7.80236C69.0443 7.71843 69.0346 7.62594 69.0516 7.53649C69.0686 7.44704 69.1115 7.3646 69.175 7.29951L71.4918 4.92457L69.175 2.54987C69.1319 2.50659 69.0979 2.45517 69.0747 2.39861C69.0516 2.34205 69.0399 2.28145 69.0403 2.22032C69.0407 2.15919 69.0531 2.09874 69.0769 2.04247C69.1007 1.9862 69.1355 1.93522 69.179 1.89247C69.2226 1.84973 69.2742 1.81606 69.3309 1.79344C69.3875 1.77081 69.4481 1.75966 69.509 1.76063C69.57 1.76161 69.6301 1.77468 69.686 1.79911C69.7419 1.82354 69.7924 1.85882 69.8346 1.90294L72.4671 4.60111C72.5515 4.68753 72.5987 4.80364 72.5987 4.92457C72.5987 5.0455 72.5515 5.16162 72.4671 5.24804L69.8346 7.94643C69.7917 7.99054 69.7404 8.02559 69.6838 8.04949C69.6271 8.07339 69.5663 8.08566 69.5048 8.08558Z" fill="#E6E6E6"/>
<path d="M247.836 1.3884H242.941C242.808 1.38836 242.676 1.41454 242.554 1.46544C242.431 1.51634 242.32 1.59096 242.226 1.68505C242.132 1.77913 242.058 1.89083 242.007 2.01376C241.956 2.1367 241.93 2.26846 241.93 2.40151V7.31441C241.93 7.44746 241.956 7.57922 242.007 7.70216C242.058 7.82509 242.132 7.93679 242.226 8.03088C242.32 8.12496 242.431 8.19959 242.554 8.25049C242.676 8.30139 242.808 8.32756 242.941 8.32752H247.836C248.104 8.32778 248.362 8.22127 248.552 8.03135C248.743 7.84143 248.85 7.5836 248.851 7.31441V2.40151C248.85 2.13231 248.743 1.87448 248.552 1.68457C248.362 1.49465 248.104 1.38814 247.836 1.3884Z" fill="#E6E6E6"/>
<path d="M235.84 1.3884H230.944C230.812 1.38836 230.68 1.41454 230.558 1.46544C230.435 1.51634 230.324 1.59096 230.23 1.68505C230.136 1.77913 230.062 1.89083 230.011 2.01376C229.96 2.1367 229.934 2.26846 229.934 2.40151V7.31441C229.934 7.44746 229.96 7.57922 230.011 7.70216C230.062 7.82509 230.136 7.93679 230.23 8.03088C230.324 8.12496 230.435 8.19959 230.558 8.25049C230.68 8.30139 230.812 8.32756 230.944 8.32752H235.84C236.108 8.32778 236.366 8.22127 236.556 8.03135C236.746 7.84143 236.854 7.5836 236.855 7.31441V2.40151C236.854 2.13231 236.746 1.87448 236.556 1.68457C236.366 1.49465 236.108 1.38814 235.84 1.3884Z" fill="#E6E6E6"/>
<path d="M259.14 1.61971H254.245C254.112 1.61967 253.98 1.64585 253.858 1.69675C253.735 1.74765 253.624 1.82227 253.53 1.91635C253.436 2.01044 253.362 2.12213 253.311 2.24507C253.26 2.368 253.234 2.49976 253.234 2.63282V7.54571C253.234 7.67877 253.26 7.81053 253.311 7.93346C253.362 8.0564 253.436 8.1681 253.53 8.26219C253.624 8.35627 253.735 8.43089 253.858 8.48179C253.98 8.53269 254.112 8.55887 254.245 8.55883H259.14C259.408 8.55909 259.666 8.45258 259.856 8.26266C260.047 8.07274 260.154 7.81491 260.155 7.54571V2.63282C260.154 2.36362 260.047 2.10579 259.856 1.91587C259.666 1.72595 259.408 1.61945 259.14 1.61971Z" fill="#E6E6E6"/>
<path d="M160.968 8.82695H129.132C128.031 8.82695 126.974 8.3883 126.196 7.6075C125.417 6.82669 124.979 5.76769 124.979 4.66347C124.979 3.55925 125.417 2.50026 126.196 1.71946C126.974 0.938654 128.031 0.5 129.132 0.5H160.968C162.069 0.5 163.125 0.938654 163.904 1.71946C164.683 2.50026 165.12 3.55925 165.12 4.66347C165.12 5.76769 164.683 6.82669 163.904 7.6075C163.125 8.3883 162.069 8.82695 160.968 8.82695Z" fill="#E6E6E6"/>
<path d="M108.55 147.332H37.4995C37.0931 147.332 36.7034 147.17 36.4161 146.882C36.1287 146.594 35.9673 146.203 35.9673 145.795C35.9673 145.388 36.1287 144.997 36.4161 144.709C36.7034 144.421 37.0931 144.259 37.4995 144.259H108.55C108.956 144.259 109.346 144.421 109.633 144.709C109.921 144.997 110.082 145.388 110.082 145.795C110.082 146.203 109.921 146.594 109.633 146.882C109.346 147.17 108.956 147.332 108.55 147.332Z" fill="#F2F2F2"/>
<path d="M108.55 103.512H1.53243C1.33099 103.513 1.13146 103.473 0.945258 103.396C0.759055 103.319 0.589834 103.206 0.447274 103.063C0.304714 102.92 0.191621 102.751 0.114455 102.564C0.0372876 102.378 -0.00244141 102.178 -0.00244141 101.976C-0.00244141 101.774 0.0372876 101.574 0.114455 101.387C0.191621 101.201 0.304714 101.031 0.447274 100.889C0.589834 100.746 0.759055 100.633 0.945258 100.556C1.13146 100.479 1.33099 100.439 1.53243 100.44H108.55C108.956 100.44 109.345 100.603 109.632 100.891C109.918 101.179 110.079 101.569 110.079 101.976C110.079 102.383 109.918 102.773 109.632 103.061C109.345 103.349 108.956 103.511 108.55 103.512Z" fill="#F2F2F2"/>
<path d="M108.552 114.482H1.53C1.12378 114.483 0.734441 114.645 0.447448 114.934C0.160456 115.222 -0.000732422 115.613 -0.000732422 116.02C-0.000732422 116.427 0.160456 116.818 0.447448 117.106C0.734441 117.394 1.12378 117.557 1.53 117.557H108.552C108.958 117.557 109.347 117.394 109.634 117.106C109.921 116.818 110.083 116.427 110.083 116.02C110.083 115.613 109.921 115.222 109.634 114.934C109.347 114.645 108.958 114.483 108.552 114.482Z" fill="#F2F2F2"/>
<path d="M108.55 131.602H1.53245C1.12608 131.602 0.736361 131.44 0.449016 131.152C0.161672 130.864 0.000244141 130.473 0.000244141 130.066C0.000244141 129.658 0.161672 129.268 0.449016 128.98C0.736361 128.691 1.12608 128.53 1.53245 128.53H108.55C108.956 128.53 109.346 128.691 109.633 128.98C109.921 129.268 110.082 129.658 110.082 130.066C110.082 130.473 109.921 130.864 109.633 131.152C109.346 131.44 108.956 131.602 108.55 131.602Z" fill="#F2F2F2"/>
<path d="M198.666 254.34L193.752 254.339L191.415 235.338L198.666 235.339L198.666 254.34Z" fill="#A0616A"/>
<path d="M198.838 259.479L183.73 259.478V259.286C183.73 257.723 184.35 256.223 185.452 255.117C186.555 254.012 188.051 253.39 189.611 253.39L192.371 251.291L197.52 253.391L198.839 253.391L198.838 259.479Z" fill="#2F2E41"/>
<path d="M248.1 254.34L243.187 254.339L240.85 235.338L248.101 235.339L248.1 254.34Z" fill="#A0616A"/>
<path d="M248.273 259.479L233.165 259.478V259.286C233.165 257.723 233.784 256.223 234.887 255.117C235.99 254.012 237.486 253.39 239.045 253.39L241.805 251.291L246.955 253.391L248.273 253.391L248.273 259.479Z" fill="#2F2E41"/>
<path d="M202.674 145.18C202.674 145.18 199.447 148.613 199.311 150.841C199.175 153.068 200.856 149.022 199.175 153.068C197.493 157.115 197.493 154.417 197.493 157.115C197.493 159.812 193.93 162.446 193.93 162.446L188.055 186.683L191.44 243.433H198.839C205.714 222.419 208.913 206.192 205.228 198.925L215.503 176.028C215.503 176.028 234.917 236.94 235.71 237.657C236.503 238.375 236.503 237.364 236.503 238.375C236.503 239.387 235.494 238.375 236.503 239.387L241.211 244.107L248.273 243.433C248.273 243.433 249.219 199.332 241.348 191.711C241.348 191.711 243.165 168.109 241.348 168.175C239.53 168.242 239.53 171.276 239.53 168.242C239.53 165.207 241.684 164.397 241.684 164.397L235.631 143.082L202.674 145.18Z" fill="#2F2E41"/>
<path d="M240.795 98.1959L233.957 126.901L235.572 137.578L237.51 150.369L230.81 149.934L220.443 149.259L201.194 148.01L199.51 91.3632L208.341 82.111L209.919 77.6191L222.685 77.5404L225.74 82.9344L233.593 85.1735C234.602 85.8157 235.55 86.5497 236.426 87.3662C238.363 89.1658 240.08 91.4511 240.883 93.7919C241.125 94.474 241.278 95.1846 241.339 95.906L240.795 98.1959Z" fill="#E6E6E6"/>
<path d="M181.369 171.028C181.884 170.743 182.33 170.349 182.678 169.874C183.026 169.399 183.266 168.853 183.383 168.276C183.5 167.698 183.491 167.102 183.355 166.529C183.22 165.955 182.962 165.418 182.599 164.954L192.337 147.178L188.096 143.269L176.683 164.466C175.95 165.137 175.488 166.054 175.384 167.043C175.28 168.032 175.542 169.025 176.12 169.834C176.697 170.643 177.551 171.211 178.518 171.431C179.486 171.651 180.5 171.507 181.369 171.028Z" fill="#E6E6E6"/>
<path d="M205.121 87.9L202.851 128.672L191.915 154.294L184.797 163.759L185.606 159.47L180.7 157.009L180.239 156.779L189.659 120.128L190.526 105.885C190.676 103.434 191.331 101.041 192.451 98.8571C193.57 96.6731 195.129 94.7458 197.03 93.1971L202.478 88.7598L205.121 87.9Z" fill="#E6E6E6"/>
<path d="M181.369 171.028C181.884 170.743 182.33 170.349 182.678 169.874C183.026 169.399 183.266 168.853 183.383 168.276C183.5 167.698 183.491 167.102 183.355 166.529C183.22 165.955 182.962 165.418 182.599 164.954L192.337 147.178L188.096 143.269L176.683 164.466C175.95 165.137 175.488 166.054 175.384 167.043C175.28 168.032 175.542 169.025 176.12 169.834C176.697 170.643 177.551 171.211 178.518 171.431C179.486 171.651 180.5 171.507 181.369 171.028Z" fill="#A0616A"/>
<path d="M205.121 87.9L202.851 128.672L191.915 154.294L184.797 163.759L185.606 159.47L180.7 157.009L180.239 156.779L189.659 120.128L190.526 105.885C190.676 103.434 191.331 101.041 192.451 98.8571C193.57 96.6731 195.129 94.7458 197.03 93.1971L202.478 88.7598L205.121 87.9Z" fill="#E6E6E6"/>
<path d="M215.662 89.3056H110.93C104.115 89.3056 98.5903 94.8448 98.5903 101.678V155.85C98.5903 162.683 104.115 168.222 110.93 168.222H215.662C222.477 168.222 228.001 162.683 228.001 155.85V101.678C228.001 94.8448 222.477 89.3056 215.662 89.3056Z" fill="white"/>
<path d="M215.662 168.685H110.93C107.536 168.681 104.282 167.328 101.883 164.921C99.4828 162.515 98.1329 159.253 98.129 155.85V101.678C98.1329 98.2748 99.4828 95.0125 101.883 92.6064C104.282 90.2003 107.536 88.8468 110.93 88.843H215.662C219.056 88.8469 222.309 90.2003 224.709 92.6065C227.109 95.0126 228.459 98.2749 228.462 101.678V155.85C228.459 159.253 227.109 162.515 224.709 164.921C222.309 167.327 219.056 168.681 215.662 168.685ZM110.93 89.7682C107.78 89.7682 104.758 91.0229 102.531 93.2564C100.303 95.4898 99.0518 98.519 99.0518 101.678V121.926C99.0518 134.082 103.868 145.74 112.441 154.335C121.014 162.931 132.641 167.76 144.765 167.76H215.662C218.812 167.76 221.833 166.505 224.061 164.272C226.288 162.038 227.54 159.009 227.54 155.85V101.678C227.54 100.114 227.232 98.565 226.635 97.1201C226.039 95.6752 225.164 94.3623 224.061 93.2564C222.958 92.1505 221.648 91.2732 220.207 90.6747C218.766 90.0762 217.221 89.7682 215.662 89.7682L110.93 89.7682Z" fill="#3F3D56"/>
<path d="M138.612 146.806H114.158C113.266 146.806 112.543 147.531 112.543 148.425C112.543 149.319 113.266 150.044 114.158 150.044H138.612C139.503 150.044 140.226 149.319 140.226 148.425C140.226 147.531 139.503 146.806 138.612 146.806Z" fill="#6C63FF"/>
<path d="M212.434 142.411H195.362C194.47 142.411 193.747 143.136 193.747 144.03V152.82C193.747 153.714 194.47 154.439 195.362 154.439H212.434C213.325 154.439 214.048 153.714 214.048 152.82V144.03C214.048 143.136 213.325 142.411 212.434 142.411Z" fill="#6C63FF"/>
<path d="M120.848 119.743C125.435 119.743 129.153 116.015 129.153 111.416C129.153 106.817 125.435 103.089 120.848 103.089C116.261 103.089 112.543 106.817 112.543 111.416C112.543 116.015 116.261 119.743 120.848 119.743Z" fill="#6C63FF"/>
<path d="M215.836 75.1564C221.595 75.1564 226.264 70.4752 226.264 64.7006C226.264 58.9261 221.595 54.2449 215.836 54.2449C210.077 54.2449 205.408 58.9261 205.408 64.7006C205.408 70.4752 210.077 75.1564 215.836 75.1564Z" fill="#A0616A"/>
<path d="M224.391 70.1049C224.472 70.7296 223.345 70.7956 223.091 70.2195C222.837 69.6434 223.167 68.9904 223.487 68.4486L224.231 67.1909C224.371 66.954 224.453 66.687 224.469 66.4121C224.485 66.1373 224.436 65.8624 224.325 65.6106C224.214 65.3588 224.044 65.1372 223.83 64.9643C223.617 64.7915 223.365 64.6724 223.096 64.6169C223.776 63.082 223.038 61.1661 221.682 60.1799C220.325 59.1936 218.307 61.0389 216.662 61.3554C215.017 61.6719 213.699 60.4092 212.2 61.1578L213.101 59.075L208.113 61.2296L209.272 58.8867C208.013 58.9555 207.477 60.4926 207.226 61.7313C206.959 63.0512 206.258 64.701 204.827 64.4276C204.487 64.3517 204.176 64.1813 203.929 63.9359C203.682 63.6906 203.509 63.3803 203.43 63.0407C202.325 58.7657 205.535 54.0922 209.791 53.3424C210.246 52.0825 211.091 51.0019 212.203 50.2588C213.316 49.5157 214.636 49.1491 215.971 49.2129C217.306 49.2766 218.585 49.7672 219.622 50.6129C220.659 51.4586 221.398 52.6149 221.732 53.9124L223.127 52.1995L223.399 54.6265C224.402 54.5197 225.349 55.2295 225.836 56.1146C226.324 56.9998 226.093 58.1426 226.561 59.0382C228.658 63.0522 227.964 67.5713 224.727 70.6499" fill="#2F2E41"/>
<path d="M260.966 252.482C261.18 252.492 261.392 252.435 261.574 252.32C261.755 252.205 261.897 252.036 261.98 251.838C262.062 251.639 262.082 251.42 262.037 251.21C261.991 250.999 261.882 250.808 261.724 250.662L261.653 250.376C261.662 250.353 261.672 250.33 261.681 250.307C261.897 249.796 262.259 249.36 262.722 249.053C263.184 248.747 263.727 248.585 264.281 248.587C264.835 248.589 265.376 248.756 265.837 249.065C266.297 249.375 266.656 249.813 266.868 250.327C267.716 252.375 268.796 254.427 269.062 256.593C269.179 257.551 269.13 258.521 268.916 259.462C270.908 255.104 271.943 250.368 271.95 245.574C271.95 244.371 271.884 243.169 271.75 241.973C271.64 240.993 271.487 240.02 271.291 239.054C270.223 233.812 267.93 228.899 264.601 224.718C262.99 223.836 261.686 222.481 260.867 220.834C260.57 220.242 260.36 219.61 260.244 218.957C260.426 218.981 260.93 216.205 260.792 216.035C261.046 215.65 261.499 215.458 261.776 215.082C263.152 213.211 265.048 213.538 266.037 216.08C268.152 217.15 268.172 218.924 266.875 220.631C266.049 221.716 265.936 223.185 265.212 224.348C265.286 224.443 265.364 224.536 265.438 224.631C266.8 226.387 267.987 228.273 268.982 230.261C268.74 228.034 269.029 225.781 269.825 223.687C270.632 221.736 272.143 220.093 273.475 218.407C273.827 217.953 274.305 217.615 274.849 217.435C275.393 217.254 275.978 217.239 276.53 217.392C277.082 217.544 277.577 217.858 277.952 218.292C278.326 218.727 278.564 219.263 278.635 219.833C278.638 219.858 278.64 219.883 278.643 219.907C278.445 220.019 278.252 220.138 278.062 220.264C277.824 220.423 277.64 220.651 277.533 220.917C277.427 221.183 277.403 221.476 277.465 221.756C277.526 222.036 277.671 222.291 277.88 222.487C278.089 222.683 278.352 222.811 278.635 222.855L278.664 222.86C278.593 223.574 278.469 224.282 278.291 224.978C279.999 231.601 276.312 234.013 271.047 234.121C270.931 234.181 270.817 234.241 270.701 234.297C271.701 237.138 272.328 240.097 272.567 243.1C272.702 244.871 272.694 246.651 272.543 248.421L272.552 248.358C272.933 246.39 273.981 244.614 275.517 243.33C277.799 241.45 281.023 240.758 283.484 239.248C283.746 239.079 284.05 238.989 284.361 238.989C284.672 238.988 284.977 239.076 285.239 239.243C285.501 239.41 285.711 239.649 285.842 239.932C285.974 240.214 286.022 240.529 285.981 240.838L285.971 240.904C285.604 241.053 285.247 241.226 284.901 241.421C284.703 241.532 284.51 241.651 284.32 241.777C284.082 241.936 283.898 242.164 283.791 242.43C283.685 242.696 283.661 242.989 283.723 243.269C283.785 243.549 283.929 243.804 284.138 244C284.347 244.196 284.61 244.324 284.893 244.368L284.922 244.373C284.943 244.376 284.961 244.379 284.981 244.382C284.354 245.883 283.474 247.264 282.38 248.466C281.312 254.247 276.725 254.796 271.819 253.112H271.816C271.277 255.458 270.497 257.741 269.488 259.925H261.174C261.144 259.832 261.117 259.736 261.09 259.644C261.86 259.692 262.633 259.646 263.391 259.506C262.774 258.748 262.157 257.983 261.54 257.224C261.527 257.209 261.514 257.194 261.502 257.179C261.189 256.79 260.873 256.405 260.56 256.017L260.56 256.016C260.543 254.825 260.68 253.637 260.966 252.482Z" fill="#F2F2F2"/>
<path d="M132.445 259.95C132.445 260.022 132.459 260.094 132.487 260.16C132.514 260.227 132.555 260.288 132.606 260.339C132.657 260.39 132.717 260.431 132.784 260.459C132.851 260.486 132.922 260.5 132.994 260.5H285.386C285.532 260.5 285.672 260.442 285.775 260.339C285.878 260.236 285.935 260.096 285.935 259.95C285.935 259.804 285.878 259.663 285.775 259.56C285.672 259.457 285.532 259.399 285.386 259.399H132.994C132.922 259.399 132.851 259.413 132.784 259.44C132.717 259.468 132.657 259.509 132.606 259.56C132.555 259.611 132.514 259.672 132.487 259.739C132.459 259.805 132.445 259.877 132.445 259.95Z" fill="#CCCCCC"/>
<path d="M220.277 168.553C220.781 168.25 221.214 167.841 221.544 167.354C221.875 166.866 222.096 166.313 222.193 165.732C222.289 165.15 222.258 164.555 222.103 163.986C221.947 163.418 221.67 162.891 221.291 162.44L230.393 144.328L226.016 140.572L215.362 162.163C214.653 162.859 214.224 163.792 214.155 164.784C214.086 165.777 214.383 166.76 214.989 167.547C215.595 168.335 216.468 168.873 217.442 169.058C218.417 169.243 219.426 169.064 220.277 168.553Z" fill="#A0616A"/>
<path d="M240.883 93.7919L241.339 95.906L240.246 125.457L235.572 137.578L230.81 149.934L230.225 151.456L223.447 161.166L224.102 156.85L219.11 154.565L218.644 154.357L220.443 149.259L224.582 137.545L226.372 132.475L226.759 117.39L227.119 103.127C227.182 100.673 227.752 98.2579 228.793 96.0355C229.834 93.813 231.324 91.8314 233.168 90.2159L236.426 87.3662C238.363 89.1658 240.08 91.4511 240.883 93.7919Z" fill="#E6E6E6"/>
<path d="M131.99 167.616L110.361 167.153C107.671 167.149 105.092 166.076 103.19 164.168C101.287 162.26 100.218 159.674 100.215 156.976L99.2917 134.302C101.948 152.788 112.153 164.513 131.99 167.616Z" fill="#6C63FF"/>
</g>
<defs>
<clipPath id="clip0_73_383">
<rect width="286" height="260" fill="white" transform="translate(0 0.5)"/>
</clipPath>
</defs>
</svg>
