<svg width="455" height="246" viewBox="0 0 455 246" fill="none" xmlns="http://www.w3.org/2000/svg">
<g clip-path="url(#clip0_92_219)">
<path d="M246.906 130.132V130.666C246.905 135.573 244.952 140.278 241.477 143.746C238.002 147.215 233.29 149.163 228.376 149.163H19.2293C14.3166 149.162 9.6053 147.213 6.13155 143.745C2.65779 140.276 0.706049 135.572 0.705582 130.666V130.132H246.906Z" fill="#F2F2F2"/>
<path d="M44.4488 42.0833C29.3347 45.8107 15.7666 34.1999 13.3976 23.4286L14.4499 23.2408C27.189 20.4291 41.4096 29.5216 44.4488 42.0833Z" fill="#6C63FF"/>
<path d="M409.787 241.562C405.416 239.678 404.423 232.811 408.081 229.769C411.74 226.727 418.323 228.944 419.389 233.578L415.311 204.452C414.374 197.756 413.624 190.271 417.676 184.854C421.471 179.782 428.885 178.157 434.837 180.34C440.789 182.524 445.188 187.97 447.054 194.021C448.921 200.072 448.48 206.648 446.85 212.767C445.221 218.885 442.452 224.633 439.652 230.313C436.783 236.134 433.303 242.442 427.17 244.585C421.312 246.632 409.787 241.562 409.787 241.562Z" fill="#F2F2F2"/>
<path d="M428.943 179.788C431.623 188.138 432.898 196.875 432.718 205.641C432.55 214.369 430.98 223.014 428.068 231.245C426.41 235.915 424.31 240.416 421.795 244.687C421.687 244.888 421.661 245.123 421.723 245.343C421.784 245.563 421.929 245.751 422.127 245.866C422.324 245.981 422.559 246.015 422.781 245.961C423.004 245.907 423.196 245.769 423.318 245.576C427.833 237.873 431.04 229.478 432.811 220.731C434.609 211.943 434.968 202.921 433.877 194.018C433.263 189.028 432.18 184.107 430.644 179.32C430.297 178.245 428.594 178.705 428.943 179.788Z" fill="white"/>
<path d="M407.195 230.841L421.153 245.487C421.937 246.31 423.183 245.063 422.401 244.242L408.442 229.596C407.658 228.773 406.413 230.02 407.195 230.841Z" fill="white"/>
<path d="M395.338 175.539C394.841 175.54 394.36 175.362 393.984 175.037C385.365 169.433 377.693 162.497 371.256 154.487C370.862 154.114 370.631 153.602 370.61 153.06C370.589 152.518 370.782 151.99 371.146 151.588L375.377 146.923L376.249 147.711L372.018 152.377C371.857 152.554 371.774 152.788 371.785 153.026C371.797 153.265 371.904 153.489 372.081 153.65L372.143 153.715C378.516 161.653 386.116 168.525 394.657 174.073L394.734 174.132C394.912 174.293 395.146 174.376 395.385 174.364C395.624 174.352 395.849 174.246 396.009 174.069L404.265 164.966C404.418 164.797 404.502 164.576 404.498 164.347C404.495 164.119 404.404 163.9 404.246 163.736C402.333 162.695 400.466 161.56 398.697 160.363L399.356 159.391C401.116 160.582 402.973 161.709 404.877 162.742L404.99 162.823C405.193 163.006 405.357 163.227 405.474 163.473C405.591 163.719 405.658 163.986 405.671 164.258C405.685 164.531 405.645 164.803 405.553 165.059C405.461 165.316 405.319 165.552 405.136 165.754L396.881 174.857C396.698 175.06 396.477 175.224 396.23 175.341C395.983 175.458 395.716 175.524 395.443 175.537C395.408 175.538 395.373 175.539 395.338 175.539Z" fill="#3F3D56"/>
<path d="M386.237 160.215C388.83 162.557 391.493 163.843 392.187 163.08C392.277 162.95 392.334 162.8 392.352 162.644C392.371 162.487 392.35 162.328 392.292 162.181C392.011 161.317 391.561 160.518 390.969 159.828C388.665 158.19 386.425 156.423 384.25 154.527C383.568 154.304 383.045 154.31 382.792 154.592C382.756 154.632 382.727 154.677 382.704 154.727C382.269 155.613 383.78 157.99 386.237 160.215Z" fill="#6C63FF"/>
<path d="M370.612 141.343C370.634 141.878 370.866 142.382 371.258 142.746C374.741 147.044 378.569 151.05 382.704 154.727C385.73 157.422 388.934 159.912 392.292 162.181C392.851 162.563 393.415 162.933 393.986 163.297C394.36 163.624 394.84 163.803 395.338 163.802C395.373 163.802 395.408 163.796 395.443 163.796C395.717 163.783 395.985 163.716 396.232 163.599C396.479 163.483 396.701 163.318 396.884 163.115L405.137 154.016C405.507 153.608 405.7 153.069 405.672 152.518C405.645 151.968 405.399 151.451 404.99 151.081L404.879 150.999C395.868 146.139 388.165 139.178 382.428 130.707L382.34 130.601C381.93 130.232 381.391 130.04 380.84 130.067C380.288 130.095 379.771 130.339 379.4 130.748L371.147 139.846C370.963 140.048 370.821 140.285 370.729 140.541C370.638 140.798 370.598 141.071 370.612 141.343ZM371.787 141.284C371.781 141.167 371.798 141.05 371.838 140.939C371.877 140.828 371.938 140.726 372.017 140.639L380.27 131.534C380.35 131.446 380.447 131.375 380.555 131.324C380.663 131.274 380.78 131.246 380.899 131.241C381.116 131.228 381.329 131.295 381.499 131.429C387.321 140.005 395.122 147.059 404.244 151.997C404.402 152.161 404.493 152.378 404.497 152.606C404.502 152.834 404.42 153.054 404.267 153.224L396.008 162.328C395.929 162.417 395.834 162.489 395.726 162.539C395.619 162.59 395.503 162.618 395.385 162.622C395.145 162.633 394.911 162.551 394.732 162.393L394.655 162.334C393.409 161.536 392.181 160.7 390.969 159.828C388.665 158.19 386.425 156.423 384.25 154.527C379.858 150.701 375.806 146.502 372.14 141.977L372.081 141.913C371.905 141.75 371.799 141.524 371.787 141.284Z" fill="#3F3D56"/>
<path d="M392.186 151.342C392.877 150.58 391.334 148.061 388.74 145.716C386.147 143.371 383.484 142.087 382.793 142.849C382.103 143.611 383.645 146.13 386.239 148.475C388.833 150.82 391.495 152.104 392.186 151.342Z" fill="#6C63FF"/>
<path d="M340.321 238.642L333.114 238.642L329.685 210.884L340.322 210.885L340.321 238.642Z" fill="#FFB8B8"/>
<path d="M342.159 245.618L318.92 245.617V245.324C318.92 244.138 319.154 242.963 319.609 241.868C320.063 240.772 320.729 239.776 321.569 238.937C322.409 238.099 323.407 237.434 324.504 236.98C325.601 236.526 326.778 236.292 327.965 236.292H327.966L342.159 236.293L342.159 245.618Z" fill="#2F2E41"/>
<path d="M361.484 238.642L354.277 238.642L350.848 210.884L361.485 210.885L361.484 238.642Z" fill="#FFB8B8"/>
<path d="M363.322 245.618L340.083 245.617V245.324C340.083 244.138 340.317 242.963 340.772 241.868C341.227 240.772 341.893 239.776 342.733 238.937C343.573 238.099 344.57 237.434 345.667 236.98C346.765 236.526 347.941 236.292 349.129 236.292H349.129L363.323 236.293L363.322 245.618Z" fill="#2F2E41"/>
<path d="M366.321 126.463L364.6 228.421C364.595 228.743 364.523 229.062 364.388 229.356C364.254 229.649 364.061 229.912 363.82 230.128C363.579 230.344 363.297 230.508 362.99 230.609C362.683 230.711 362.358 230.749 362.036 230.719L353.602 229.954C353.049 229.904 352.532 229.659 352.142 229.265C351.751 228.87 351.514 228.35 351.471 227.797L346.533 164.199C346.522 164.05 346.454 163.91 346.342 163.81C346.231 163.709 346.086 163.654 345.936 163.657C345.786 163.66 345.642 163.72 345.535 163.825C345.428 163.93 345.366 164.072 345.36 164.222L342.892 229.276C342.869 229.883 342.611 230.457 342.173 230.879C341.735 231.3 341.151 231.535 340.542 231.535H331.498C330.899 231.535 330.322 231.307 329.886 230.897C329.45 230.488 329.187 229.927 329.15 229.33L322.819 125.876L360.442 116.484L366.321 126.463Z" fill="#2F2E41"/>
<path d="M339.031 30.7266C347.006 30.7266 353.47 24.2718 353.47 16.3095C353.47 8.34706 347.006 1.89227 339.031 1.89227C331.057 1.89227 324.593 8.34706 324.593 16.3095C324.593 24.2718 331.057 30.7266 339.031 30.7266Z" fill="#FFB8B8"/>
<path d="M321.53 129.496C321.28 129.255 321.081 128.967 320.943 128.648C320.805 128.329 320.732 127.986 320.728 127.638L319.754 58.1134C319.696 54.5767 320.761 51.1125 322.798 48.2184C324.835 45.3242 327.738 43.1491 331.09 42.0055C332.442 35.8776 339.642 35.11 343.839 35.2017C344.887 35.2242 345.913 35.4986 346.832 36.0017C347.751 36.5047 348.534 37.2216 349.117 38.0914L352.125 42.5976L358.757 46.479C361.826 48.2676 364.246 50.9833 365.67 54.2345C367.093 57.4856 367.445 61.1041 366.675 64.568L365.655 69.205C362.059 85.6169 362.401 102.645 366.653 118.9L368.707 126.721C368.814 127.129 368.822 127.556 368.73 127.967C368.638 128.378 368.449 128.761 368.179 129.084C367.909 129.407 367.565 129.661 367.176 129.825C366.788 129.989 366.366 130.057 365.945 130.025L363.559 129.841C362.94 129.794 362.357 129.531 361.912 129.098C361.468 128.664 361.191 128.088 361.13 127.471L360.735 123.528C360.728 123.456 360.694 123.389 360.64 123.34C360.586 123.291 360.515 123.264 360.443 123.264C360.37 123.264 360.299 123.291 360.245 123.34C360.191 123.389 360.157 123.456 360.15 123.528L359.768 127.345C359.703 127.99 359.404 128.589 358.926 129.028C358.448 129.466 357.825 129.714 357.176 129.724L323.414 130.243C323.4 130.243 323.386 130.243 323.372 130.243C322.684 130.245 322.023 129.976 321.53 129.496Z" fill="#3F3D56"/>
<path d="M340.161 24.6198C340.22 26.6578 341.637 27.8369 343.377 28.9044C345.117 29.9719 347.15 30.4348 349.143 30.8813C349.41 31.0232 349.71 31.0938 350.013 31.0864C350.316 31.079 350.612 30.9937 350.872 30.8389C351.132 30.684 351.348 30.4648 351.499 30.2024C351.65 29.94 351.73 29.6432 351.732 29.3406L353.56 22.4005C354.206 20.1835 354.677 17.9191 354.967 15.6283C355.407 11.2205 354.36 6.47882 351.279 3.29186C348.198 0.10491 342.855 -1.0272 339.162 1.42829C334.781 -4.15976 314.752 8.18635 319.693 12.0721C320.571 12.7634 321.915 11.8887 323.031 11.8039C324.146 11.7191 325.397 11.9151 326.105 12.7796C327.031 13.9091 326.628 15.5916 327.009 17.0006C327.167 17.4964 327.422 17.9561 327.758 18.3531C328.095 18.7502 328.507 19.0767 328.971 19.314C329.434 19.5513 329.94 19.6946 330.46 19.7356C330.979 19.7767 331.501 19.7146 331.997 19.5531C332.919 19.0992 333.787 18.5422 334.583 17.8927C335.439 17.3236 336.52 16.903 337.484 17.262C338.753 17.7351 339.204 19.2874 339.319 20.6358C339.513 21.9806 339.794 23.3115 340.161 24.6198Z" fill="#2F2E41"/>
<path opacity="0.2" d="M336.789 63.2592L334.437 92.0219L322.092 121.959L340.316 92.6089L336.789 63.2592Z" fill="black"/>
<path d="M319.205 133.107C319.879 132.567 320.426 131.885 320.808 131.111C321.19 130.337 321.397 129.489 321.415 128.626C321.432 127.763 321.261 126.907 320.911 126.118C320.562 125.328 320.043 124.625 319.392 124.058L327.257 104.607L316.556 106.765L310.728 124.905C309.846 126.06 309.419 127.498 309.527 128.947C309.636 130.396 310.273 131.754 311.318 132.765C312.363 133.776 313.743 134.37 315.197 134.433C316.65 134.496 318.077 134.024 319.205 133.107Z" fill="#FFB8B8"/>
<path d="M318.633 124.529L312.576 122.349C311.952 122.121 311.436 121.668 311.129 121.079C310.823 120.49 310.749 119.808 310.921 119.167L320.913 82.6451L322.436 49.637C322.482 48.6406 322.726 47.6634 323.154 46.762C323.581 45.8606 324.184 45.0531 324.927 44.3864C325.67 43.7197 326.538 43.2072 327.481 42.8785C328.424 42.5499 329.423 42.4117 330.42 42.472C331.417 42.5324 332.392 42.7901 333.289 43.2301C334.185 43.6701 334.985 44.2836 335.642 45.035C336.298 45.7865 336.799 46.6608 337.114 47.6071C337.43 48.5535 337.554 49.553 337.479 50.5475L334.758 86.6907L322.026 122.919C321.833 123.466 321.465 123.935 320.979 124.253C320.493 124.571 319.916 124.721 319.336 124.68C319.096 124.661 318.859 124.61 318.633 124.529Z" fill="#3F3D56"/>
<path d="M381.056 135.015C381.469 134.257 381.711 133.418 381.765 132.557C381.818 131.695 381.682 130.833 381.366 130.03C381.049 129.227 380.56 128.503 379.933 127.909C379.306 127.315 378.556 126.866 377.737 126.592L377.489 105.618L368.447 111.725L370.068 130.707C369.7 132.112 369.861 133.604 370.52 134.899C371.179 136.194 372.292 137.203 373.646 137.734C375 138.265 376.503 138.281 377.868 137.78C379.234 137.279 380.368 136.295 381.056 135.015Z" fill="#FFB8B8"/>
<path d="M377.218 127.319L370.787 127.638C370.123 127.667 369.472 127.448 368.962 127.022C368.453 126.597 368.121 125.996 368.032 125.339L363.161 87.7916L351.83 56.7457C351.488 55.8086 351.336 54.8131 351.383 53.8168C351.429 52.8206 351.674 51.8435 352.102 50.9425C352.531 50.0415 353.134 49.2345 353.878 48.5685C354.621 47.9024 355.49 47.3906 356.433 47.0627C357.376 46.7349 358.375 46.5975 359.372 46.6587C360.369 46.7199 361.344 46.9783 362.24 47.419C363.136 47.8597 363.936 48.4739 364.592 49.2258C365.248 49.9778 365.748 50.8524 366.062 51.799L377.498 86.1986L379.728 124.528C379.761 125.107 379.602 125.682 379.276 126.162C378.951 126.643 378.476 127.003 377.925 127.188C377.696 127.263 377.458 127.307 377.218 127.319Z" fill="#3F3D56"/>
<path d="M454.412 245.916H230.433C230.277 245.916 230.128 245.854 230.018 245.744C229.907 245.634 229.845 245.485 229.845 245.329C229.845 245.174 229.907 245.024 230.018 244.914C230.128 244.804 230.277 244.742 230.433 244.742H454.412C454.568 244.742 454.718 244.804 454.828 244.914C454.938 245.024 455 245.174 455 245.329C455 245.485 454.938 245.634 454.828 245.744C454.718 245.854 454.568 245.916 454.412 245.916Z" fill="#3F3D56"/>
<path d="M190.011 119.185C186.634 119.185 183.949 118.182 182.029 116.205C177.69 111.735 177.962 103.119 178.18 96.1954C178.244 94.1813 178.304 92.2787 178.243 90.6851L178.243 90.6611C178.258 87.5474 179.503 84.5656 181.707 82.3634C183.912 80.1611 186.898 78.9163 190.016 78.8994H218.008C221.38 78.8994 224.062 79.9006 225.981 81.8757C230.32 86.342 230.051 94.9561 229.835 101.878C229.772 103.896 229.713 105.803 229.775 107.399C229.764 110.517 228.52 113.505 226.314 115.712C224.108 117.919 221.119 119.168 217.996 119.185H190.011ZM179.418 90.6527C179.48 92.2845 179.419 94.2022 179.355 96.2323C179.144 102.934 178.881 111.275 182.874 115.388C184.587 117.153 186.922 118.011 190.011 118.011H217.994C220.803 117.996 223.492 116.876 225.477 114.892C227.463 112.909 228.585 110.224 228.599 107.42C228.536 105.807 228.597 103.88 228.66 101.841C228.869 95.1409 229.129 86.8023 225.137 82.6931C223.425 80.9304 221.092 80.0734 218.008 80.0734H190.018C187.212 80.089 184.526 81.2085 182.541 83.1891C180.557 85.1696 179.435 87.8514 179.418 90.6527Z" fill="#3F3D56"/>
<path d="M38.2646 43.1635C33.3563 43.1338 28.5548 41.7296 24.4061 39.1105C18.3283 35.3394 13.7391 29.2998 12.4296 23.3493L12.2983 22.7529L13.9408 22.4594C26.87 19.6101 41.4936 28.7919 44.6264 41.7342L44.7638 42.3017L44.1961 42.4418C42.2555 42.9214 40.2637 43.1637 38.2646 43.1635ZM13.7202 23.6916C15.1309 29.1502 19.4125 34.6298 25.0267 38.1133C30.4548 41.5821 37.0329 42.7762 43.3364 41.4373C40.0587 29.3795 26.3337 20.9183 14.1832 23.6085L13.7202 23.6916Z" fill="#3F3D56"/>
<path d="M21.9556 109.871C18.1094 109.871 14.9846 108.152 13.1501 105.017C12.1219 103.193 11.5814 101.136 11.5807 99.0427C11.5801 96.9496 12.1193 94.8917 13.1464 93.0672C15.0102 89.8786 18.2095 88.1488 22.1606 88.2093H59.4574C63.3951 88.1591 66.5968 89.8811 68.4618 93.0735C69.489 94.8976 70.0285 96.9551 70.0283 99.0478C70.0281 101.14 69.4882 103.198 68.4607 105.022C66.5965 108.207 63.3957 109.908 59.4485 109.869H22.1511C22.0857 109.87 22.0206 109.871 21.9556 109.871ZM21.9774 89.3819C18.5474 89.3819 15.7766 90.8963 14.1618 93.6591C13.2365 95.3028 12.7508 97.1568 12.7514 99.0424C12.752 100.928 13.239 102.782 14.1653 104.425C15.8074 107.231 18.6348 108.75 22.1423 108.695H59.4574C62.9685 108.751 65.8047 107.233 67.4456 104.429C68.3712 102.786 68.8575 100.933 68.8576 99.0473C68.8578 97.162 68.3717 95.3084 67.4462 93.6651C65.8043 90.8545 62.9675 89.3412 59.4657 89.3833H22.1483C22.0913 89.3824 22.0341 89.3819 21.9774 89.3819Z" fill="#3F3D56"/>
<path d="M199.582 92.8582H187.825C187.045 92.8582 186.298 92.549 185.746 91.9986C185.195 91.4482 184.885 90.7017 184.885 89.9233C184.885 89.1448 185.195 88.3983 185.746 87.8479C186.298 87.2975 187.045 86.9883 187.825 86.9883H199.582C200.362 86.9883 201.109 87.2975 201.661 87.8479C202.212 88.3983 202.522 89.1448 202.522 89.9233C202.522 90.7017 202.212 91.4482 201.661 91.9986C201.109 92.549 200.362 92.8582 199.582 92.8582Z" fill="#6C63FF"/>
<path d="M199.582 102.25H187.825C187.045 102.25 186.298 101.941 185.746 101.391C185.195 100.84 184.885 100.094 184.885 99.3152C184.885 98.5368 185.195 97.7903 185.746 97.2399C186.298 96.6895 187.045 96.3802 187.825 96.3802H199.582C200.362 96.3802 201.109 96.6895 201.661 97.2399C202.212 97.7903 202.522 98.5368 202.522 99.3152C202.522 100.094 202.212 100.84 201.661 101.391C201.109 101.941 200.362 102.25 199.582 102.25Z" fill="#6C63FF"/>
<path d="M199.582 111.642H187.825C187.045 111.642 186.298 111.333 185.746 110.782C185.195 110.232 184.885 109.485 184.885 108.707C184.885 107.929 185.195 107.182 185.746 106.632C186.298 106.081 187.045 105.772 187.825 105.772H199.582C200.362 105.772 201.109 106.081 201.661 106.632C202.212 107.182 202.522 107.929 202.522 108.707C202.522 109.485 202.212 110.232 201.661 110.782C201.109 111.333 200.362 111.642 199.582 111.642Z" fill="#6C63FF"/>
<path d="M220.158 92.8582H208.4C207.621 92.8582 206.873 92.549 206.322 91.9986C205.771 91.4482 205.461 90.7017 205.461 89.9233C205.461 89.1448 205.771 88.3983 206.322 87.8479C206.873 87.2975 207.621 86.9883 208.4 86.9883H220.158C220.937 86.9883 221.685 87.2975 222.236 87.8479C222.787 88.3983 223.097 89.1448 223.097 89.9233C223.097 90.7017 222.787 91.4482 222.236 91.9986C221.685 92.549 220.937 92.8582 220.158 92.8582Z" fill="#6C63FF"/>
<path d="M220.158 102.25H208.4C207.621 102.25 206.873 101.941 206.322 101.391C205.771 100.84 205.461 100.094 205.461 99.3152C205.461 98.5368 205.771 97.7903 206.322 97.2399C206.873 96.6895 207.621 96.3802 208.4 96.3802H220.158C220.937 96.3802 221.685 96.6895 222.236 97.2399C222.787 97.7903 223.097 98.5368 223.097 99.3152C223.097 100.094 222.787 100.84 222.236 101.391C221.685 101.941 220.937 102.25 220.158 102.25Z" fill="#6C63FF"/>
<path d="M220.158 111.642H208.4C207.621 111.642 206.873 111.333 206.322 110.782C205.771 110.232 205.461 109.485 205.461 108.707C205.461 107.929 205.771 107.182 206.322 106.632C206.873 106.081 207.621 105.772 208.4 105.772H220.158C220.937 105.772 221.685 106.081 222.236 106.632C222.787 107.182 223.097 107.929 223.097 108.707C223.097 109.485 222.787 110.232 222.236 110.782C221.685 111.333 220.937 111.642 220.158 111.642Z" fill="#6C63FF"/>
<path d="M246.906 51.147H0.705566V52.321H246.906V51.147Z" fill="#3F3D56"/>
<path d="M227.506 149.503H19.3997C14.2564 149.497 9.32537 147.455 5.68847 143.823C2.05157 140.192 0.00580992 135.268 0 130.132V29.1694C0.00580992 24.0337 2.05157 19.11 5.68847 15.4786C9.32537 11.8471 14.2564 9.80439 19.3997 9.79858H227.506C232.649 9.80439 237.58 11.8471 241.217 15.4786C244.854 19.11 246.9 24.0337 246.906 29.1694V130.132C246.9 135.268 244.854 140.192 241.217 143.823C237.58 147.455 232.649 149.497 227.506 149.503ZM19.3997 10.9726C14.5681 10.9781 9.93596 12.897 6.51949 16.3084C3.10301 19.7197 1.18123 24.345 1.17574 29.1694V130.132C1.18123 134.957 3.10302 139.582 6.5195 142.993C9.93597 146.405 14.5681 148.324 19.3997 148.329H227.506C232.338 148.324 236.97 146.405 240.386 142.993C243.803 139.582 245.725 134.957 245.73 130.132V29.1694C245.725 24.345 243.803 19.7197 240.386 16.3083C236.97 12.897 232.338 10.978 227.506 10.9726H19.3997Z" fill="#3F3D56"/>
</g>
<defs>
<clipPath id="clip0_92_219">
<rect width="455" height="246" fill="black"/>
</clipPath>
</defs>
</svg>
