<svg width="21" height="24" viewBox="0 0 21 24" fill="none" xmlns="http://www.w3.org/2000/svg">
<path d="M20.5 16.3095V1.30953C20.5 0.715777 20.0223 0.238098 19.4286 0.238098H4.78571C2.41964 0.238098 0.5 2.15774 0.5 4.52381V18.8095C0.5 21.1756 2.41964 23.0952 4.78571 23.0952H19.4286C20.0223 23.0952 20.5 22.6176 20.5 22.0238V21.3095C20.5 20.9747 20.3438 20.6711 20.1027 20.4747C19.9152 19.7872 19.9152 17.8274 20.1027 17.1399C20.3438 16.9479 20.5 16.6443 20.5 16.3095ZM6.21429 6.22024C6.21429 6.07292 6.33482 5.95238 6.48214 5.95238H15.9464C16.0938 5.95238 16.2143 6.07292 16.2143 6.22024V7.1131C16.2143 7.26042 16.0938 7.38096 15.9464 7.38096H6.48214C6.33482 7.38096 6.21429 7.26042 6.21429 7.1131V6.22024ZM6.21429 9.07738C6.21429 8.93006 6.33482 8.80953 6.48214 8.80953H15.9464C16.0938 8.80953 16.2143 8.93006 16.2143 9.07738V9.97024C16.2143 10.1176 16.0938 10.2381 15.9464 10.2381H6.48214C6.33482 10.2381 6.21429 10.1176 6.21429 9.97024V9.07738ZM17.5268 20.2381H4.78571C3.99554 20.2381 3.35714 19.5997 3.35714 18.8095C3.35714 18.0238 4 17.381 4.78571 17.381H17.5268C17.442 18.1443 17.442 19.4747 17.5268 20.2381Z" fill="#EFEFEF"/>
</svg>
