<svg width="21" height="16" viewBox="0 0 21 16" fill="none" xmlns="http://www.w3.org/2000/svg">
<path d="M0.5 7V15.5C0.5 15.7763 0.72375 16 1 16H3.5V6H1.5C0.947812 6 0.5 6.44782 0.5 7ZM11.75 5.5H11V4.25C11 4.11188 10.8881 4 10.75 4H10.25C10.1119 4 10 4.11188 10 4.25V6.25C10 6.38813 10.1119 6.5 10.25 6.5H11.75C11.8881 6.5 12 6.38813 12 6.25V5.75C12 5.61188 11.8881 5.5 11.75 5.5ZM16.0547 3.50125L11.0547 0.167815C10.8904 0.0583876 10.6974 0 10.5 0C10.3026 0 10.1096 0.0583876 9.94531 0.167815L4.94531 3.50125C4.80836 3.59256 4.69606 3.71626 4.61838 3.86137C4.5407 4.00648 4.50004 4.16853 4.5 4.33313V16H8.5V11.5C8.5 11.2238 8.72375 11 9 11H12C12.2763 11 12.5 11.2238 12.5 11.5V16H16.5V4.33344C16.5 3.99907 16.3328 3.68657 16.0547 3.50125ZM10.5 8C9.11937 8 8 6.88063 8 5.5C8 4.11938 9.11937 3 10.5 3C11.8806 3 13 4.11938 13 5.5C13 6.88063 11.8806 8 10.5 8ZM19.5 6H17.5V16H20C20.2763 16 20.5 15.7763 20.5 15.5V7C20.5 6.44782 20.0522 6 19.5 6Z" fill="#EFEFEF"/>
</svg>
