<svg width="30" height="50" viewBox="0 0 30 50" fill="none" xmlns="http://www.w3.org/2000/svg">
<path d="M21.3666 22.793L10.8197 19.707C9.59898 19.3555 8.74937 18.2129 8.74937 16.9434C8.74937 15.3516 10.0384 14.0625 11.6302 14.0625H18.1048C19.2962 14.0625 20.4681 14.4238 21.4447 15.0879C22.0404 15.4883 22.8412 15.3906 23.349 14.8926L26.7474 11.5723C27.4408 10.8984 27.3431 9.77539 26.5716 9.17969C24.1791 7.30469 21.1908 6.25977 18.1244 6.25V1.5625C18.1244 0.703125 17.4212 0 16.5619 0H13.4369C12.5775 0 11.8744 0.703125 11.8744 1.5625V6.25H11.6302C5.40953 6.25 0.409528 11.5918 0.9857 17.9297C1.39586 22.4316 4.83336 26.0938 9.16929 27.3633L19.1791 30.293C20.3998 30.6543 21.2494 31.7871 21.2494 33.0566C21.2494 34.6484 19.9603 35.9375 18.3685 35.9375H11.8939C10.7025 35.9375 9.53062 35.5762 8.55406 34.9121C7.95836 34.5117 7.15758 34.6094 6.64976 35.1074L3.25133 38.4277C2.55797 39.1016 2.65562 40.2246 3.42711 40.8203C5.81968 42.6953 8.80797 43.7402 11.8744 43.75V48.4375C11.8744 49.2969 12.5775 50 13.4369 50H16.5619C17.4212 50 18.1244 49.2969 18.1244 48.4375V43.7305C22.6752 43.6426 26.9427 40.9375 28.4466 36.6309C30.5462 30.6152 27.0209 24.4434 21.3666 22.793Z" fill="#EFEFEF"/>
</svg>
