<svg width="34" height="34" viewBox="0 0 34 34" fill="none" xmlns="http://www.w3.org/2000/svg">
<path fill-rule="evenodd" clip-rule="evenodd" d="M23.7003 17.512C21.8169 17.512 20.0336 17.8954 18.5336 18.5287C23.8003 20.062 27.5169 23.712 27.6003 27.962C30.3336 27.5954 33.2669 26.5787 33.2669 23.7454C33.2669 20.362 28.8836 17.512 23.7003 17.512Z" fill="black"/>
<path fill-rule="evenodd" clip-rule="evenodd" d="M23.6503 15.1121H23.7003C27.2503 15.1121 30.1337 12.2287 30.1337 8.67873C30.1337 5.12873 27.2503 2.2454 23.7003 2.2454C23.0003 2.2454 22.3337 2.36207 21.7003 2.56207C22.8503 4.26207 23.517 6.31207 23.517 8.51207C23.517 10.8287 22.767 12.9787 21.5003 14.7287C22.167 14.9787 22.9003 15.1121 23.6503 15.1121Z" fill="black"/>
<path fill-rule="evenodd" clip-rule="evenodd" d="M12.9146 20.2441C6.31124 20.2441 0.73291 23.8524 0.73291 28.1241C0.73291 33.0224 7.68458 33.5891 12.9146 33.5891C15.9279 33.5891 25.0962 33.5891 25.0962 28.0907C25.0962 23.8374 19.5179 20.2441 12.9146 20.2441Z" fill="black"/>
<path fill-rule="evenodd" clip-rule="evenodd" d="M12.8625 16.6259H12.9125C17.3841 16.6259 21.0208 12.9892 21.0208 8.51922C21.0208 4.04755 17.3841 0.410889 12.9125 0.410889C8.44414 0.410889 4.80748 4.04756 4.80748 8.51589C4.79914 10.6742 5.63081 12.7059 7.15248 14.2376C8.67414 15.7692 10.7008 16.6176 12.8625 16.6259Z" fill="black"/>
</svg>
