<svg width="21" height="21" viewBox="0 0 21 21" fill="none" xmlns="http://www.w3.org/2000/svg">
<path d="M20.468 15.4634L19.4251 9.21358C19.3235 8.61204 18.804 8.17065 18.1908 8.17065H8.62861V5.67074H12.3785C12.7222 5.67074 13.0034 5.3895 13.0034 5.04577V1.292C13.0034 0.948262 12.7222 0.667023 12.3785 0.667023H2.37884C2.0351 0.667023 1.75386 0.948262 1.75386 1.292V5.04186C1.75386 5.3856 2.0351 5.66684 2.37884 5.66684H6.1287V8.16675H2.81241C2.20306 8.16675 1.67964 8.60814 1.57809 9.20968L0.535155 15.4594C0.511718 15.5962 0.5 15.7329 0.5 15.8696V19.4163C0.5 20.1077 1.05857 20.6663 1.74995 20.6663H19.2493C19.9407 20.6663 20.4993 20.1077 20.4993 19.4163V15.8735C20.5032 15.7368 20.4915 15.6001 20.468 15.4634ZM11.441 10.3542C11.441 10.0104 11.7222 9.72919 12.066 9.72919H12.691C13.0347 9.72919 13.3159 10.0104 13.3159 10.3542V10.9791C13.3159 11.3229 13.0347 11.6041 12.691 11.6041H12.066C11.7222 11.6041 11.441 11.3229 11.441 10.9791V10.3542ZM10.191 12.8541H10.816C11.1598 12.8541 11.441 13.1353 11.441 13.479V14.104C11.441 14.4478 11.1598 14.729 10.816 14.729H10.191C9.84731 14.729 9.56607 14.4478 9.56607 14.104V13.479C9.56607 13.1353 9.84731 12.8541 10.191 12.8541ZM8.94109 9.72919C9.28483 9.72919 9.56607 10.0104 9.56607 10.3542V10.9791C9.56607 11.3229 9.28483 11.6041 8.94109 11.6041H8.31612C7.97238 11.6041 7.69114 11.3229 7.69114 10.9791V10.3542C7.69114 10.0104 7.97238 9.72919 8.31612 9.72919H8.94109ZM3.62879 3.79191V2.54195H11.1285V3.79191H3.62879ZM5.19123 11.6041H4.56626C4.22252 11.6041 3.94128 11.3229 3.94128 10.9791V10.3542C3.94128 10.0104 4.22252 9.72919 4.56626 9.72919H5.19123C5.53497 9.72919 5.81621 10.0104 5.81621 10.3542V10.9791C5.81621 11.3229 5.53497 11.6041 5.19123 11.6041ZM5.81621 14.104V13.479C5.81621 13.1353 6.09745 12.8541 6.44119 12.8541H7.06616C7.4099 12.8541 7.69114 13.1353 7.69114 13.479V14.104C7.69114 14.4478 7.4099 14.729 7.06616 14.729H6.44119C6.09745 14.729 5.81621 14.4478 5.81621 14.104ZM14.2534 18.4789C14.2534 18.6507 14.1128 18.7914 13.9409 18.7914H7.06616C6.8943 18.7914 6.75368 18.6507 6.75368 18.4789V17.8539C6.75368 17.682 6.8943 17.5414 7.06616 17.5414H13.9409C14.1128 17.5414 14.2534 17.682 14.2534 17.8539V18.4789ZM15.1909 14.104C15.1909 14.4478 14.9096 14.729 14.5659 14.729H13.9409C13.5972 14.729 13.3159 14.4478 13.3159 14.104V13.479C13.3159 13.1353 13.5972 12.8541 13.9409 12.8541H14.5659C14.9096 12.8541 15.1909 13.1353 15.1909 13.479V14.104ZM17.0658 10.9791C17.0658 11.3229 16.7846 11.6041 16.4408 11.6041H15.8158C15.4721 11.6041 15.1909 11.3229 15.1909 10.9791V10.3542C15.1909 10.0104 15.4721 9.72919 15.8158 9.72919H16.4408C16.7846 9.72919 17.0658 10.0104 17.0658 10.3542V10.9791Z" fill="#EFEFEF"/>
</svg>
