<svg width="21" height="22" viewBox="0 0 21 22" fill="none" xmlns="http://www.w3.org/2000/svg">
<path fill-rule="evenodd" clip-rule="evenodd" d="M14.619 11.3148C13.4612 11.3148 12.3649 11.5504 11.4428 11.9398C14.6805 12.8824 16.9652 15.1262 17.0165 17.7388C18.6968 17.5134 20.5 16.8884 20.5 15.1467C20.5 13.0668 17.8054 11.3148 14.619 11.3148Z" fill="#EFEFEF"/>
<path fill-rule="evenodd" clip-rule="evenodd" d="M14.5883 9.83942H14.619C16.8013 9.83942 18.5738 8.06692 18.5738 5.88459C18.5738 3.70226 16.8013 1.92976 14.619 1.92976C14.1887 1.92976 13.7789 2.00148 13.3895 2.12443C14.0965 3.16949 14.5063 4.42971 14.5063 5.78214C14.5063 7.20628 14.0453 8.52798 13.2666 9.60377C13.6764 9.75746 14.1272 9.83942 14.5883 9.83942Z" fill="#EFEFEF"/>
<path fill-rule="evenodd" clip-rule="evenodd" d="M7.98857 12.9943C3.92923 12.9943 0.5 15.2125 0.5 17.8384C0.5 20.8496 4.77347 21.198 7.98857 21.198C9.84099 21.198 15.4771 21.198 15.4771 17.8179C15.4771 15.2032 12.0479 12.9943 7.98857 12.9943Z" fill="#EFEFEF"/>
<path fill-rule="evenodd" clip-rule="evenodd" d="M7.95654 10.77H7.98728C10.7362 10.77 12.9718 8.53442 12.9718 5.78653C12.9718 3.03762 10.7362 0.80201 7.98728 0.80201C5.24041 0.80201 3.0048 3.03762 3.0048 5.78448C2.99968 7.1113 3.51094 8.36025 4.44637 9.30182C5.3818 10.2434 6.62767 10.7649 7.95654 10.77Z" fill="#EFEFEF"/>
</svg>
