<svg width="21" height="18" viewBox="0 0 21 18" fill="none" xmlns="http://www.w3.org/2000/svg">
<path fill-rule="evenodd" clip-rule="evenodd" d="M15.8009 9.25251C14.8676 9.25251 13.9916 9.4408 13.2548 9.76008C15.8336 10.5051 17.6592 12.2898 17.7084 14.3774C19.051 14.2054 20.5 13.6979 20.5 12.3143C20.5 10.6524 18.3469 9.25251 15.8009 9.25251Z" fill="#EFEFEF"/>
<path fill-rule="evenodd" clip-rule="evenodd" d="M15.7763 8.07364H15.7927C17.5364 8.07364 18.9609 6.64917 18.9609 4.9136C18.9609 3.16984 17.5364 1.74537 15.7927 1.74537C15.4488 1.74537 15.1214 1.80267 14.8103 1.90091C15.3751 2.73595 15.7026 3.74291 15.7026 4.83173C15.7108 5.93693 15.367 7.00119 14.7202 7.88535C15.0559 8.00815 15.4079 8.07364 15.7763 8.07364Z" fill="#EFEFEF"/>
<path fill-rule="evenodd" clip-rule="evenodd" d="M7.737 9.75189C7.0002 9.4408 6.12423 9.25251 5.19914 9.25251C2.65309 9.25251 0.5 10.6524 0.5 12.3143C0.5 13.6979 1.94085 14.1972 3.28346 14.3774C3.32439 12.2898 5.15002 10.5051 7.737 9.75189Z" fill="#EFEFEF"/>
<path fill-rule="evenodd" clip-rule="evenodd" d="M5.19914 8.07364H5.2237C5.5921 8.07364 5.94413 8.00815 6.27978 7.88535C5.65759 7.03394 5.28919 5.97786 5.28919 4.83173C5.28919 3.74291 5.61666 2.73595 6.18154 1.90091C5.87045 1.80267 5.54298 1.74537 5.19914 1.74537C3.45538 1.74537 2.03909 3.16984 2.03909 4.9136C2.03909 6.64917 3.45538 8.07364 5.19914 8.07364Z" fill="#EFEFEF"/>
<path fill-rule="evenodd" clip-rule="evenodd" d="M10.4956 10.5927C7.25285 10.5927 4.51278 12.3577 4.51278 14.447C4.51278 17.1486 9.01544 17.1485 10.4956 17.1485C13.0646 17.1485 16.48 16.8702 16.48 14.4641C16.48 12.3651 13.7391 10.5927 10.4956 10.5927Z" fill="#EFEFEF"/>
<path fill-rule="evenodd" clip-rule="evenodd" d="M10.4964 8.81542H10.5234C11.5836 8.81215 12.5791 8.39545 13.3257 7.64309C14.0731 6.89074 14.4825 5.89279 14.4784 4.83425C14.4784 2.63778 12.6929 0.85145 10.4964 0.85145C8.30073 0.85145 6.51522 2.63778 6.51522 4.83425C6.51522 7.02909 8.30073 8.81542 10.4964 8.81542Z" fill="#EFEFEF"/>
</svg>
