<svg width="21" height="27" viewBox="0 0 21 27" fill="none" xmlns="http://www.w3.org/2000/svg">
<path d="M20.1354 5.46875L15.0365 0.364583C14.8021 0.130208 14.4844 0 14.151 0H13.8333V6.66667H20.5V6.34896C20.5 6.02083 20.3698 5.70312 20.1354 5.46875ZM12.1667 7.08333V0H1.75C1.05729 0 0.5 0.557292 0.5 1.25V25.4167C0.5 26.1094 1.05729 26.6667 1.75 26.6667H19.25C19.9427 26.6667 20.5 26.1094 20.5 25.4167V8.33333H13.4167C12.7292 8.33333 12.1667 7.77083 12.1667 7.08333ZM3.83333 3.75C3.83333 3.51979 4.01979 3.33333 4.25 3.33333H8.41667C8.64687 3.33333 8.83333 3.51979 8.83333 3.75V4.58333C8.83333 4.81354 8.64687 5 8.41667 5H4.25C4.01979 5 3.83333 4.81354 3.83333 4.58333V3.75ZM3.83333 7.91667V7.08333C3.83333 6.85312 4.01979 6.66667 4.25 6.66667H8.41667C8.64687 6.66667 8.83333 6.85312 8.83333 7.08333V7.91667C8.83333 8.14687 8.64687 8.33333 8.41667 8.33333H4.25C4.01979 8.33333 3.83333 8.14687 3.83333 7.91667ZM11.3333 21.6604V22.9167C11.3333 23.1469 11.1469 23.3333 10.9167 23.3333H10.0833C9.85312 23.3333 9.66667 23.1469 9.66667 22.9167V21.6516C9.07865 21.6214 8.50677 21.4161 8.03281 21.0604C7.82969 20.9078 7.81927 20.6036 8.00312 20.4281L8.6151 19.8443C8.75937 19.7068 8.97396 19.7005 9.14271 19.8062C9.34427 19.9323 9.57292 20 9.81042 20H11.2745C11.613 20 11.8891 19.6917 11.8891 19.313C11.8891 19.0031 11.701 18.7302 11.4323 18.65L9.08854 17.9469C8.12031 17.6562 7.44375 16.7271 7.44375 15.687C7.44375 14.4099 8.43594 13.3724 9.66615 13.3396V12.0833C9.66615 11.8531 9.8526 11.6667 10.0828 11.6667H10.9161C11.1464 11.6667 11.3328 11.8531 11.3328 12.0833V13.3484C11.9208 13.3786 12.4927 13.5833 12.9667 13.9396C13.1698 14.0922 13.1802 14.3964 12.9964 14.5719L12.3844 15.1557C12.2401 15.2932 12.0255 15.2995 11.8568 15.1937C11.6552 15.0672 11.4266 15 11.1891 15H9.725C9.38646 15 9.11042 15.3083 9.11042 15.687C9.11042 15.9969 9.29844 16.2698 9.56719 16.35L11.9109 17.0531C12.8792 17.3438 13.5557 18.2729 13.5557 19.313C13.5557 20.5906 12.5635 21.6276 11.3333 21.6604Z" fill="#EFEFEF"/>
</svg>
