<svg width="42" height="34" viewBox="0 0 42 34" fill="none" xmlns="http://www.w3.org/2000/svg">
<path fill-rule="evenodd" clip-rule="evenodd" d="M31.7916 17.5004C29.8916 17.5004 28.1082 17.8837 26.6082 18.5337C31.8582 20.0504 35.5749 23.6837 35.6749 27.9337C38.4082 27.5837 41.3582 26.5504 41.3582 23.7337C41.3582 20.3504 36.9749 17.5004 31.7916 17.5004Z" fill="black"/>
<path fill-rule="evenodd" clip-rule="evenodd" d="M31.7415 15.1004H31.7749C35.3249 15.1004 38.2249 12.2004 38.2249 8.66708C38.2249 5.11708 35.3249 2.21708 31.7749 2.21708C31.0749 2.21708 30.4082 2.33375 29.7749 2.53375C30.9249 4.23375 31.5915 6.28375 31.5915 8.50041C31.6082 10.7504 30.9082 12.9171 29.5915 14.7171C30.2749 14.9671 30.9915 15.1004 31.7415 15.1004Z" fill="black"/>
<path fill-rule="evenodd" clip-rule="evenodd" d="M15.3749 18.5171C13.8749 17.8837 12.0915 17.5004 10.2082 17.5004C5.02487 17.5004 0.641541 20.3504 0.641541 23.7337C0.641541 26.5504 3.57487 27.5671 6.30821 27.9337C6.39154 23.6837 10.1082 20.0504 15.3749 18.5171Z" fill="black"/>
<path fill-rule="evenodd" clip-rule="evenodd" d="M10.2082 15.1004H10.2582C11.0082 15.1004 11.7249 14.9671 12.4082 14.7171C11.1415 12.9837 10.3915 10.8337 10.3915 8.50041C10.3915 6.28375 11.0582 4.23375 12.2082 2.53375C11.5749 2.33375 10.9082 2.21708 10.2082 2.21708C6.65822 2.21708 3.77488 5.11708 3.77488 8.66708C3.77488 12.2004 6.65822 15.1004 10.2082 15.1004Z" fill="black"/>
<path fill-rule="evenodd" clip-rule="evenodd" d="M20.9909 20.2288C14.3892 20.2288 8.81089 23.8221 8.81089 28.0754C8.81089 33.5754 17.9776 33.5754 20.9909 33.5754C26.2209 33.5754 33.1742 33.0088 33.1742 28.1104C33.1742 23.8371 27.5942 20.2288 20.9909 20.2288Z" fill="black"/>
<path fill-rule="evenodd" clip-rule="evenodd" d="M20.9925 16.6105H21.0475C23.2059 16.6039 25.2325 15.7555 26.7525 14.2239C28.2742 12.6922 29.1075 10.6605 29.0992 8.50555C29.0992 4.03388 25.4642 0.397217 20.9925 0.397217C16.5225 0.397217 12.8875 4.03388 12.8875 8.50555C12.8875 12.9739 16.5225 16.6105 20.9925 16.6105Z" fill="black"/>
</svg>
